<svg xmlns="http://www.w3.org/2000/svg" viewBox="0 0 88 112" role="img" aria-labelledby="title desc">
  <title id="title">RabbitHole entry mark</title>
  <desc id="desc">An original Acéphale-inspired headless figure with a dagger, burning heart, skull, and labyrinth body.</desc>
  <defs>
    <style>
      .ink{fill:none;stroke:#181816;stroke-width:3;stroke-linecap:round;stroke-linejoin:round}
      .thin{fill:none;stroke:#181816;stroke-width:2;stroke-linecap:round;stroke-linejoin:round}
      .fill{fill:#181816}
      .accent{fill:#b33f2f}
      .paper{fill:#f7f6f2}
    </style>
  </defs>
  <circle class="paper" cx="44" cy="58" r="39"/>
  <circle class="thin" cx="44" cy="58" r="39"/>

  <path class="ink" d="M36 22h16"/>
  <path class="ink" d="M36 22c-3 8-8 12-16 18"/>
  <path class="ink" d="M52 22c3 8 8 12 16 18"/>
  <path class="ink" d="M31 34c2 12 1 25-3 39"/>
  <path class="ink" d="M57 34c-2 12-1 25 3 39"/>
  <path class="ink" d="M28 73c-6 10-9 18-9 26"/>
  <path class="ink" d="M60 73c6 10 9 18 9 26"/>
  <path class="ink" d="M30 99c4-10 8-18 14-24"/>
  <path class="ink" d="M58 99c-4-10-8-18-14-24"/>

  <path class="thin" d="M25 43 10 62"/>
  <path class="thin" d="m10 62 4 10"/>
  <path class="fill" d="m6 70 11-5 3 18-5 1-2-10-6 3z"/>
  <path class="paper" d="m13 68 2 2"/>

  <path class="thin" d="M63 43 78 62"/>
  <path class="accent" d="M77 68c-9-6-13-11-11-17 1.4-4.3 6.4-5.1 9-1.7 2.6-3.4 7.6-2.6 9 1.7 2 6-2 11-11 17z"/>
  <path class="accent" d="M75 46c-2-6 1-9 4-13 .2 5 4 7 2 13z"/>
  <path class="paper" d="M75 54c1.3-1.4 3.4-1.4 4.8-.2"/>

  <path class="fill" d="m32 41 3 2.2 3-2.2-1.1 3.5 3 2.1-3.7.1-1.2 3.5-1.2-3.5-3.7-.1 3-2.1z"/>
  <path class="fill" d="m50 41 3 2.2 3-2.2-1.1 3.5 3 2.1-3.7.1-1.2 3.5-1.2-3.5-3.7-.1 3-2.1z"/>

  <path class="thin" d="M51 57c0 4.4-3.6 8-8 8-3.3 0-6-2.3-6-5.1 0-2.3 1.9-4.2 4.2-4.2 1.8 0 3.2 1.4 3.2 3.2 0 1.2-1 2.2-2.2 2.2"/>
  <path class="thin" d="M33 66c6 4 15 4 22 0"/>

  <path class="paper" stroke="#181816" stroke-width="2.4" stroke-linecap="round" stroke-linejoin="round" d="M36 77c0-4.2 3.4-7.5 8-7.5s8 3.3 8 7.5v6.5H36z"/>
  <circle class="fill" cx="41" cy="77" r="1.8"/>
  <circle class="fill" cx="47" cy="77" r="1.8"/>
  <path class="thin" d="M42 83h4"/>
</svg>
