<svg xmlns="http://www.w3.org/2000/svg" viewBox="0 0 96 120" role="img" aria-labelledby="title desc">
  <title id="title">RabbitHole entry mark</title>
  <desc id="desc">An original caduceus mark with wings, paired serpents, a central staff, and a small keyhole.</desc>
  <defs>
    <style>
      .ink{fill:none;stroke:#171512;stroke-width:3;stroke-linecap:round;stroke-linejoin:round}
      .thin{fill:none;stroke:#171512;stroke-width:2.1;stroke-linecap:round;stroke-linejoin:round}
      .paper{fill:#f8f1e5}
      .teal{fill:#1f5e56}
      .gold{fill:#e5b94d}
      .red{fill:#b33f2f}
      .black{fill:#171512}
    </style>
  </defs>

  <circle class="paper ink" cx="48" cy="62" r="43"/>
  <path class="gold ink" d="M48 16v88"/>
  <circle class="gold ink" cx="48" cy="18" r="5"/>
  <path class="ink" d="M39 104h18M43 96h10"/>

  <path class="teal ink" d="M45 31c-11-10-23-12-35-5 10 4 18 10 24 19-9-1-18 1-27 7 15 3 27 3 37-2z"/>
  <path class="teal ink" d="M51 31c11-10 23-12 35-5-10 4-18 10-24 19 9-1 18 1 27 7-15 3-27 3-37-2z"/>
  <path class="thin" d="M17 29c8 4 15 10 21 18M79 29c-8 4-15 10-21 18"/>

  <path class="red ink" d="M44 37c-14 6-19 15-15 23 3 6 12 5 19 11 8 7 3 18-12 25"/>
  <path class="teal ink" d="M52 37c14 6 19 15 15 23-3 6-12 5-19 11-8 7-3 18 12 25"/>
  <path class="thin" d="M34 47c6 4 22 4 28 0M30 60c8 5 28 5 36 0M38 76c6 4 14 4 20 0M39 90c5 3 13 3 18 0"/>

  <circle class="paper ink" cx="31" cy="58" r="4.5"/>
  <circle class="paper ink" cx="65" cy="58" r="4.5"/>
  <path class="black" d="M29.5 57.5h3v3h-3z"/>
  <path class="black" d="M63.5 57.5h3v3h-3z"/>

  <path class="paper ink" d="M39 74c0-5.2 3.9-9.2 9-9.2s9 4 9 9.2v9H39z"/>
  <circle class="black" cx="48" cy="73" r="3.1"/>
  <path class="black" d="M46.2 75h3.6l1.5 6h-6.6z"/>
</svg>
