<svg xmlns="http://www.w3.org/2000/svg" viewBox="0 0 96 120" role="img" aria-labelledby="title desc">
  <title id="title">Rabbit Hole entry mark</title>
  <desc id="desc">A simple caduceus mark with a central staff, widening serpent loops, and two wings near the top.</desc>
  <defs>
    <style>
      .ink{fill:none;stroke:#171512;stroke-width:3.2;stroke-linecap:round;stroke-linejoin:round}
      .thin{fill:none;stroke:#171512;stroke-width:2;stroke-linecap:round;stroke-linejoin:round}
      .paper{fill:#f8f1e5}
      .teal{fill:#1f5e56}
      .gold{stroke:#e5b94d}
      .snake{fill:none;stroke:#1f5e56;stroke-width:4.6;stroke-linecap:round;stroke-linejoin:round}
      .snake-shadow{fill:none;stroke:#171512;stroke-width:7.2;stroke-linecap:round;stroke-linejoin:round}
      .staff{fill:none;stroke:#e5b94d;stroke-width:4.8;stroke-linecap:round}
    </style>
  </defs>

  <circle class="paper ink" cx="48" cy="62" r="43"/>

  <path class="teal ink" d="M45 34C35 24 22 23 11 31c12 2 22 7 32 17z"/>
  <path class="teal ink" d="M51 34c10-10 23-11 34-3-12 2-22 7-32 17z"/>
  <path class="thin" d="M20 32c8 3 15 7 21 13M76 32c-8 3-15 7-21 13"/>

  <path class="staff" d="M48 20v82"/>
  <path class="ink" d="M39 102h18"/>

  <path class="snake-shadow" d="M48 94c-7 0-11-3-11-7s4-7 11-7 11 3 11 7-4 7-11 7z"/>
  <path class="snake-shadow" d="M48 77c-10 0-16-4-16-9s6-9 16-9 16 4 16 9-6 9-16 9z"/>
  <path class="snake-shadow" d="M48 57c-14 0-22-5-22-11s8-11 22-11 22 5 22 11-8 11-22 11z"/>
  <path class="snake" d="M48 94c-7 0-11-3-11-7s4-7 11-7 11 3 11 7-4 7-11 7z"/>
  <path class="snake" d="M48 77c-10 0-16-4-16-9s6-9 16-9 16 4 16 9-6 9-16 9z"/>
  <path class="snake" d="M48 57c-14 0-22-5-22-11s8-11 22-11 22 5 22 11-8 11-22 11z"/>
  <path class="snake-shadow" d="M48 35c0-6 4-10 11-12"/>
  <path class="snake" d="M48 35c0-6 4-10 11-12"/>
  <path class="paper ink" d="M56 20c4-1 7 1 8 4-4 2-8 1-10-2z"/>
  <path class="thin" d="M61 22l4-3"/>
</svg>
